<mxfile host="app.diagrams.net" modified="2024-06-22T08:20:15.279Z" agent="Mozilla/5.0 (Windows NT 10.0; Win64; x64) AppleWebKit/537.36 (KHTML, like Gecko) Chrome/126.0.0.0 Safari/537.36 Edg/126.0.0.0" etag="Kid2rLVEO6jKCi61BiHy" version="24.6.1" type="device">
  <diagram id="C5RBs43oDa-KdzZeNtuy" name="Page-1">
    <mxGraphModel dx="1226" dy="629" grid="1" gridSize="10" guides="1" tooltips="1" connect="1" arrows="1" fold="1" page="1" pageScale="1" pageWidth="827" pageHeight="1169" math="0" shadow="0">
      <root>
        <mxCell id="WIyWlLk6GJQsqaUBKTNV-0" />
        <mxCell id="WIyWlLk6GJQsqaUBKTNV-1" parent="WIyWlLk6GJQsqaUBKTNV-0" />
        <mxCell id="tF4FKdZZivJm7ag6AhpX-4" value="" style="edgeStyle=orthogonalEdgeStyle;rounded=0;orthogonalLoop=1;jettySize=auto;html=1;" parent="WIyWlLk6GJQsqaUBKTNV-1" source="tF4FKdZZivJm7ag6AhpX-0" target="tF4FKdZZivJm7ag6AhpX-3" edge="1">
          <mxGeometry relative="1" as="geometry" />
        </mxCell>
        <mxCell id="tF4FKdZZivJm7ag6AhpX-0" value="Card Insertion" style="rounded=1;whiteSpace=wrap;html=1;fontSize=12;glass=0;strokeWidth=1;shadow=0;" parent="WIyWlLk6GJQsqaUBKTNV-1" vertex="1">
          <mxGeometry x="160" y="200" width="120" height="40" as="geometry" />
        </mxCell>
        <mxCell id="tF4FKdZZivJm7ag6AhpX-21" value="" style="edgeStyle=orthogonalEdgeStyle;rounded=0;orthogonalLoop=1;jettySize=auto;html=1;" parent="WIyWlLk6GJQsqaUBKTNV-1" source="tF4FKdZZivJm7ag6AhpX-2" target="tF4FKdZZivJm7ag6AhpX-20" edge="1">
          <mxGeometry relative="1" as="geometry" />
        </mxCell>
        <mxCell id="tF4FKdZZivJm7ag6AhpX-2" value="Eject Card" style="rounded=1;whiteSpace=wrap;html=1;fontSize=12;glass=0;strokeWidth=1;shadow=0;" parent="WIyWlLk6GJQsqaUBKTNV-1" vertex="1">
          <mxGeometry x="640" y="240" width="120" height="40" as="geometry" />
        </mxCell>
        <mxCell id="tF4FKdZZivJm7ag6AhpX-6" value="" style="edgeStyle=orthogonalEdgeStyle;rounded=0;orthogonalLoop=1;jettySize=auto;html=1;" parent="WIyWlLk6GJQsqaUBKTNV-1" source="tF4FKdZZivJm7ag6AhpX-3" target="tF4FKdZZivJm7ag6AhpX-5" edge="1">
          <mxGeometry relative="1" as="geometry" />
        </mxCell>
        <mxCell id="y1vfWfp32B1BzLmMoh-_-0" style="edgeStyle=orthogonalEdgeStyle;rounded=0;orthogonalLoop=1;jettySize=auto;html=1;entryX=0.5;entryY=0;entryDx=0;entryDy=0;" edge="1" parent="WIyWlLk6GJQsqaUBKTNV-1" source="tF4FKdZZivJm7ag6AhpX-3" target="tF4FKdZZivJm7ag6AhpX-28">
          <mxGeometry relative="1" as="geometry" />
        </mxCell>
        <mxCell id="tF4FKdZZivJm7ag6AhpX-3" value="Is Valid&amp;nbsp;&lt;div&gt;Card ?&lt;/div&gt;" style="rhombus;whiteSpace=wrap;html=1;rounded=1;glass=0;strokeWidth=1;shadow=0;" parent="WIyWlLk6GJQsqaUBKTNV-1" vertex="1">
          <mxGeometry x="180" y="300" width="80" height="80" as="geometry" />
        </mxCell>
        <mxCell id="tF4FKdZZivJm7ag6AhpX-7" style="edgeStyle=orthogonalEdgeStyle;rounded=0;orthogonalLoop=1;jettySize=auto;html=1;entryX=0;entryY=0.5;entryDx=0;entryDy=0;" parent="WIyWlLk6GJQsqaUBKTNV-1" source="tF4FKdZZivJm7ag6AhpX-5" target="tF4FKdZZivJm7ag6AhpX-2" edge="1">
          <mxGeometry relative="1" as="geometry" />
        </mxCell>
        <mxCell id="tF4FKdZZivJm7ag6AhpX-5" value="Invalid Card&amp;nbsp;" style="whiteSpace=wrap;html=1;rounded=1;glass=0;strokeWidth=1;shadow=0;" parent="WIyWlLk6GJQsqaUBKTNV-1" vertex="1">
          <mxGeometry x="390" y="230" width="120" height="60" as="geometry" />
        </mxCell>
        <mxCell id="tF4FKdZZivJm7ag6AhpX-8" value="No" style="text;html=1;align=center;verticalAlign=middle;whiteSpace=wrap;rounded=0;" parent="WIyWlLk6GJQsqaUBKTNV-1" vertex="1">
          <mxGeometry x="300" y="311" width="60" height="30" as="geometry" />
        </mxCell>
        <mxCell id="y1vfWfp32B1BzLmMoh-_-1" style="edgeStyle=orthogonalEdgeStyle;rounded=0;orthogonalLoop=1;jettySize=auto;html=1;entryX=0.5;entryY=0;entryDx=0;entryDy=0;" edge="1" parent="WIyWlLk6GJQsqaUBKTNV-1" source="tF4FKdZZivJm7ag6AhpX-9" target="tF4FKdZZivJm7ag6AhpX-32">
          <mxGeometry relative="1" as="geometry" />
        </mxCell>
        <mxCell id="tF4FKdZZivJm7ag6AhpX-9" value="Initiate Transaction" style="whiteSpace=wrap;html=1;rounded=1;glass=0;strokeWidth=1;shadow=0;" parent="WIyWlLk6GJQsqaUBKTNV-1" vertex="1">
          <mxGeometry x="160" y="740" width="120" height="60" as="geometry" />
        </mxCell>
        <mxCell id="tF4FKdZZivJm7ag6AhpX-36" value="" style="edgeStyle=orthogonalEdgeStyle;rounded=0;orthogonalLoop=1;jettySize=auto;html=1;" parent="WIyWlLk6GJQsqaUBKTNV-1" source="tF4FKdZZivJm7ag6AhpX-13" target="tF4FKdZZivJm7ag6AhpX-35" edge="1">
          <mxGeometry relative="1" as="geometry" />
        </mxCell>
        <mxCell id="tF4FKdZZivJm7ag6AhpX-40" style="edgeStyle=orthogonalEdgeStyle;rounded=0;orthogonalLoop=1;jettySize=auto;html=1;entryX=0.5;entryY=1;entryDx=0;entryDy=0;" parent="WIyWlLk6GJQsqaUBKTNV-1" source="tF4FKdZZivJm7ag6AhpX-13" target="tF4FKdZZivJm7ag6AhpX-2" edge="1">
          <mxGeometry relative="1" as="geometry">
            <Array as="points">
              <mxPoint x="220" y="1090" />
              <mxPoint x="700" y="1090" />
            </Array>
          </mxGeometry>
        </mxCell>
        <mxCell id="tF4FKdZZivJm7ag6AhpX-13" value="Is transaction done?" style="rhombus;whiteSpace=wrap;html=1;rounded=1;glass=0;strokeWidth=1;shadow=0;" parent="WIyWlLk6GJQsqaUBKTNV-1" vertex="1">
          <mxGeometry x="165" y="940" width="110" height="100" as="geometry" />
        </mxCell>
        <mxCell id="tF4FKdZZivJm7ag6AhpX-17" value="Yes" style="text;html=1;align=center;verticalAlign=middle;whiteSpace=wrap;rounded=0;" parent="WIyWlLk6GJQsqaUBKTNV-1" vertex="1">
          <mxGeometry x="213" y="383" width="60" height="30" as="geometry" />
        </mxCell>
        <mxCell id="tF4FKdZZivJm7ag6AhpX-18" value="No" style="text;html=1;align=center;verticalAlign=middle;whiteSpace=wrap;rounded=0;" parent="WIyWlLk6GJQsqaUBKTNV-1" vertex="1">
          <mxGeometry x="440" y="538" width="60" height="30" as="geometry" />
        </mxCell>
        <mxCell id="tF4FKdZZivJm7ag6AhpX-20" value="End" style="ellipse;whiteSpace=wrap;html=1;rounded=1;glass=0;strokeWidth=1;shadow=0;" parent="WIyWlLk6GJQsqaUBKTNV-1" vertex="1">
          <mxGeometry x="660" y="60" width="80" height="80" as="geometry" />
        </mxCell>
        <mxCell id="tF4FKdZZivJm7ag6AhpX-23" style="edgeStyle=orthogonalEdgeStyle;rounded=0;orthogonalLoop=1;jettySize=auto;html=1;entryX=0.5;entryY=0;entryDx=0;entryDy=0;" parent="WIyWlLk6GJQsqaUBKTNV-1" source="tF4FKdZZivJm7ag6AhpX-22" target="tF4FKdZZivJm7ag6AhpX-0" edge="1">
          <mxGeometry relative="1" as="geometry" />
        </mxCell>
        <mxCell id="tF4FKdZZivJm7ag6AhpX-22" value="Start" style="ellipse;whiteSpace=wrap;html=1;rounded=1;glass=0;strokeWidth=1;shadow=0;" parent="WIyWlLk6GJQsqaUBKTNV-1" vertex="1">
          <mxGeometry x="180" y="60" width="80" height="80" as="geometry" />
        </mxCell>
        <mxCell id="tF4FKdZZivJm7ag6AhpX-25" value="Yes" style="text;html=1;align=center;verticalAlign=middle;whiteSpace=wrap;rounded=0;" parent="WIyWlLk6GJQsqaUBKTNV-1" vertex="1">
          <mxGeometry x="230" y="610" width="60" height="30" as="geometry" />
        </mxCell>
        <mxCell id="tF4FKdZZivJm7ag6AhpX-30" style="edgeStyle=orthogonalEdgeStyle;rounded=0;orthogonalLoop=1;jettySize=auto;html=1;entryX=0.5;entryY=1;entryDx=0;entryDy=0;" parent="WIyWlLk6GJQsqaUBKTNV-1" source="tF4FKdZZivJm7ag6AhpX-26" target="tF4FKdZZivJm7ag6AhpX-2" edge="1">
          <mxGeometry relative="1" as="geometry" />
        </mxCell>
        <mxCell id="y1vfWfp32B1BzLmMoh-_-2" style="edgeStyle=orthogonalEdgeStyle;rounded=0;orthogonalLoop=1;jettySize=auto;html=1;entryX=0.5;entryY=0;entryDx=0;entryDy=0;" edge="1" parent="WIyWlLk6GJQsqaUBKTNV-1" source="tF4FKdZZivJm7ag6AhpX-26" target="tF4FKdZZivJm7ag6AhpX-45">
          <mxGeometry relative="1" as="geometry" />
        </mxCell>
        <mxCell id="tF4FKdZZivJm7ag6AhpX-26" value="is PIN Valid ?" style="rhombus;whiteSpace=wrap;html=1;rounded=1;glass=0;strokeWidth=1;shadow=0;" parent="WIyWlLk6GJQsqaUBKTNV-1" vertex="1">
          <mxGeometry x="165" y="520" width="110" height="100" as="geometry" />
        </mxCell>
        <mxCell id="tF4FKdZZivJm7ag6AhpX-42" style="edgeStyle=orthogonalEdgeStyle;rounded=0;orthogonalLoop=1;jettySize=auto;html=1;entryX=0.5;entryY=0;entryDx=0;entryDy=0;" parent="WIyWlLk6GJQsqaUBKTNV-1" source="tF4FKdZZivJm7ag6AhpX-28" target="tF4FKdZZivJm7ag6AhpX-26" edge="1">
          <mxGeometry relative="1" as="geometry" />
        </mxCell>
        <mxCell id="tF4FKdZZivJm7ag6AhpX-28" value="Enter PIN" style="whiteSpace=wrap;html=1;rounded=1;glass=0;strokeWidth=1;shadow=0;" parent="WIyWlLk6GJQsqaUBKTNV-1" vertex="1">
          <mxGeometry x="160" y="420" width="120" height="60" as="geometry" />
        </mxCell>
        <mxCell id="tF4FKdZZivJm7ag6AhpX-34" style="edgeStyle=orthogonalEdgeStyle;rounded=0;orthogonalLoop=1;jettySize=auto;html=1;entryX=0.5;entryY=0;entryDx=0;entryDy=0;" parent="WIyWlLk6GJQsqaUBKTNV-1" source="tF4FKdZZivJm7ag6AhpX-32" target="tF4FKdZZivJm7ag6AhpX-13" edge="1">
          <mxGeometry relative="1" as="geometry" />
        </mxCell>
        <mxCell id="tF4FKdZZivJm7ag6AhpX-44" value="" style="edgeStyle=orthogonalEdgeStyle;rounded=0;orthogonalLoop=1;jettySize=auto;html=1;" parent="WIyWlLk6GJQsqaUBKTNV-1" source="tF4FKdZZivJm7ag6AhpX-32" target="tF4FKdZZivJm7ag6AhpX-43" edge="1">
          <mxGeometry relative="1" as="geometry" />
        </mxCell>
        <mxCell id="tF4FKdZZivJm7ag6AhpX-32" value="Process Transaction" style="whiteSpace=wrap;html=1;rounded=1;glass=0;strokeWidth=1;shadow=0;" parent="WIyWlLk6GJQsqaUBKTNV-1" vertex="1">
          <mxGeometry x="160" y="820" width="120" height="60" as="geometry" />
        </mxCell>
        <mxCell id="tF4FKdZZivJm7ag6AhpX-37" style="edgeStyle=orthogonalEdgeStyle;rounded=0;orthogonalLoop=1;jettySize=auto;html=1;entryX=0.5;entryY=1;entryDx=0;entryDy=0;" parent="WIyWlLk6GJQsqaUBKTNV-1" source="tF4FKdZZivJm7ag6AhpX-35" target="tF4FKdZZivJm7ag6AhpX-2" edge="1">
          <mxGeometry relative="1" as="geometry" />
        </mxCell>
        <mxCell id="tF4FKdZZivJm7ag6AhpX-35" value="Print Receipt" style="whiteSpace=wrap;html=1;rounded=1;glass=0;strokeWidth=1;shadow=0;" parent="WIyWlLk6GJQsqaUBKTNV-1" vertex="1">
          <mxGeometry x="430" y="900" width="120" height="60" as="geometry" />
        </mxCell>
        <mxCell id="tF4FKdZZivJm7ag6AhpX-38" value="Yes" style="text;html=1;align=center;verticalAlign=middle;whiteSpace=wrap;rounded=0;" parent="WIyWlLk6GJQsqaUBKTNV-1" vertex="1">
          <mxGeometry x="340" y="947" width="60" height="30" as="geometry" />
        </mxCell>
        <mxCell id="tF4FKdZZivJm7ag6AhpX-41" value="No" style="text;html=1;align=center;verticalAlign=middle;whiteSpace=wrap;rounded=0;" parent="WIyWlLk6GJQsqaUBKTNV-1" vertex="1">
          <mxGeometry x="450" y="1060" width="60" height="30" as="geometry" />
        </mxCell>
        <mxCell id="tF4FKdZZivJm7ag6AhpX-43" value="Provide/Receive cash (if any)" style="whiteSpace=wrap;html=1;rounded=1;glass=0;strokeWidth=1;shadow=0;" parent="WIyWlLk6GJQsqaUBKTNV-1" vertex="1">
          <mxGeometry x="360" y="820" width="130" height="60" as="geometry" />
        </mxCell>
        <mxCell id="y1vfWfp32B1BzLmMoh-_-4" style="edgeStyle=orthogonalEdgeStyle;rounded=0;orthogonalLoop=1;jettySize=auto;html=1;entryX=0.5;entryY=0;entryDx=0;entryDy=0;" edge="1" parent="WIyWlLk6GJQsqaUBKTNV-1" source="tF4FKdZZivJm7ag6AhpX-45" target="tF4FKdZZivJm7ag6AhpX-9">
          <mxGeometry relative="1" as="geometry" />
        </mxCell>
        <mxCell id="y1vfWfp32B1BzLmMoh-_-15" style="edgeStyle=orthogonalEdgeStyle;rounded=0;orthogonalLoop=1;jettySize=auto;html=1;entryX=0;entryY=0.5;entryDx=0;entryDy=0;" edge="1" parent="WIyWlLk6GJQsqaUBKTNV-1" source="tF4FKdZZivJm7ag6AhpX-45" target="y1vfWfp32B1BzLmMoh-_-5">
          <mxGeometry relative="1" as="geometry" />
        </mxCell>
        <mxCell id="y1vfWfp32B1BzLmMoh-_-16" style="edgeStyle=orthogonalEdgeStyle;rounded=0;orthogonalLoop=1;jettySize=auto;html=1;entryX=0;entryY=0.5;entryDx=0;entryDy=0;" edge="1" parent="WIyWlLk6GJQsqaUBKTNV-1" source="tF4FKdZZivJm7ag6AhpX-45" target="y1vfWfp32B1BzLmMoh-_-10">
          <mxGeometry relative="1" as="geometry" />
        </mxCell>
        <mxCell id="y1vfWfp32B1BzLmMoh-_-18" style="edgeStyle=orthogonalEdgeStyle;rounded=0;orthogonalLoop=1;jettySize=auto;html=1;entryX=0;entryY=0.5;entryDx=0;entryDy=0;" edge="1" parent="WIyWlLk6GJQsqaUBKTNV-1" source="tF4FKdZZivJm7ag6AhpX-45" target="y1vfWfp32B1BzLmMoh-_-11">
          <mxGeometry relative="1" as="geometry" />
        </mxCell>
        <mxCell id="tF4FKdZZivJm7ag6AhpX-45" value="Select Transaction Type" style="whiteSpace=wrap;html=1;rounded=1;glass=0;strokeWidth=1;shadow=0;" parent="WIyWlLk6GJQsqaUBKTNV-1" vertex="1">
          <mxGeometry x="160" y="660" width="120" height="60" as="geometry" />
        </mxCell>
        <mxCell id="tF4FKdZZivJm7ag6AhpX-47" value="&lt;h1 style=&quot;margin-top: 0px;&quot;&gt;ATM Flowchart&lt;/h1&gt;" style="text;html=1;whiteSpace=wrap;overflow=hidden;rounded=0;align=center;" parent="WIyWlLk6GJQsqaUBKTNV-1" vertex="1">
          <mxGeometry x="360" y="10" width="180" height="50" as="geometry" />
        </mxCell>
        <mxCell id="y1vfWfp32B1BzLmMoh-_-5" value="Display Balance" style="whiteSpace=wrap;html=1;rounded=1;glass=0;strokeWidth=1;shadow=0;" vertex="1" parent="WIyWlLk6GJQsqaUBKTNV-1">
          <mxGeometry x="340" y="585" width="120" height="60" as="geometry" />
        </mxCell>
        <mxCell id="y1vfWfp32B1BzLmMoh-_-10" value="Withdrawl" style="whiteSpace=wrap;html=1;rounded=1;glass=0;strokeWidth=1;shadow=0;" vertex="1" parent="WIyWlLk6GJQsqaUBKTNV-1">
          <mxGeometry x="340" y="660" width="120" height="60" as="geometry" />
        </mxCell>
        <mxCell id="y1vfWfp32B1BzLmMoh-_-11" value="Deposit" style="whiteSpace=wrap;html=1;rounded=1;glass=0;strokeWidth=1;shadow=0;" vertex="1" parent="WIyWlLk6GJQsqaUBKTNV-1">
          <mxGeometry x="340" y="730" width="120" height="60" as="geometry" />
        </mxCell>
      </root>
    </mxGraphModel>
  </diagram>
</mxfile>
